<?xml version="1.0" standalone="no"?>
<!DOCTYPE svg PUBLIC "-//W3C//DTD SVG 20010904//EN"
 "http://www.w3.org/TR/2001/REC-SVG-20010904/DTD/svg10.dtd">
<svg version="1.0" xmlns="http://www.w3.org/2000/svg"
 width="868.000000pt" height="868.000000pt" viewBox="0 0 868.000000 868.000000"
 preserveAspectRatio="xMidYMid meet">

<g transform="translate(0.000000,868.000000) scale(0.100000,-0.100000)"
fill="#000000" stroke="none">
<path d="M3525 6733 c-40 -29 -86 -79 -135 -143 -14 -18 -56 -69 -95 -113
-172 -197 -322 -388 -365 -465 -9 -15 -27 -45 -41 -67 -15 -22 -35 -58 -46
-80 -11 -22 -40 -78 -65 -125 -25 -47 -58 -121 -73 -165 -15 -44 -31 -85 -35
-90 -5 -6 -18 -35 -29 -66 -12 -31 -31 -65 -43 -75 -11 -11 -29 -37 -39 -59
-10 -22 -39 -69 -66 -104 -66 -89 -295 -322 -311 -316 -32 12 -157 -131 -219
-249 -23 -45 -86 -144 -170 -266 -17 -25 -46 -70 -66 -100 -49 -77 -230 -229
-318 -267 -38 -16 -136 -110 -245 -235 -105 -119 -149 -150 -237 -168 -97 -20
-125 -37 -241 -149 -61 -60 -135 -131 -165 -158 l-54 -50 14 -32 c13 -31 16
-32 54 -26 22 3 51 13 64 22 18 11 26 13 29 5 2 -7 10 -12 18 -12 9 0 14 -7
12 -17 -2 -12 4 -19 18 -21 16 -2 22 5 30 35 7 29 15 39 33 41 17 3 21 0 15
-10 -5 -7 -10 -23 -12 -35 -3 -26 25 -32 46 -11 7 7 5 -3 -5 -22 -28 -56 -43
-104 -34 -113 5 -5 25 -5 45 -1 32 5 41 14 59 50 16 33 27 44 44 44 14 0 23 6
23 15 0 8 -4 15 -10 15 -5 0 -10 6 -10 13 0 16 41 57 57 57 6 0 16 7 23 15 7
8 23 15 36 15 27 0 41 17 25 33 -17 17 -13 31 12 42 25 11 36 52 14 57 -22 5
7 98 31 98 29 -1 55 -27 47 -47 -13 -31 -14 -78 -2 -85 7 -5 0 -8 -15 -8 -33
0 -43 -13 -23 -30 8 -7 15 -18 15 -26 0 -13 -30 -27 -50 -22 -7 2 -15 -3 -17
-9 -3 -8 4 -13 18 -13 12 0 31 -7 41 -16 16 -16 18 -15 24 2 18 55 31 74 46
74 10 0 18 7 18 15 0 8 -4 15 -10 15 -5 0 -7 6 -4 14 3 8 1 17 -5 21 -12 7
-15 26 -4 24 19 -3 33 2 33 11 0 6 -9 10 -20 10 -11 0 -20 7 -20 15 0 9 9 15
24 15 19 0 25 6 29 32 6 44 2 48 -42 48 -21 0 -40 3 -44 6 -7 7 59 95 80 107
31 18 25 -5 -10 -41 -43 -44 -49 -67 -14 -56 28 9 87 68 87 89 0 19 7 19 26 0
9 -8 27 -15 42 -16 27 0 27 0 5 -11 -26 -13 -30 -26 -9 -34 17 -7 15 -46 -4
-69 -13 -15 -11 -17 10 -13 14 1 25 10 25 18 0 8 8 16 18 18 13 3 17 -3 17
-27 0 -38 23 -41 51 -8 15 17 20 19 28 8 9 -14 51 -7 51 8 0 5 18 21 40 36 26
18 37 32 31 38 -12 12 -69 -21 -74 -42 -3 -13 -5 -13 -12 3 -6 14 -2 23 14 35
12 10 31 36 41 59 11 23 24 42 31 42 8 0 7 -6 -4 -17 -20 -23 -25 -55 -10 -60
6 -2 16 2 22 9 5 7 24 29 41 48 31 35 32 35 26 8 -7 -31 11 -39 21 -10 3 9 12
24 20 34 17 19 -2 37 -20 19 -23 -23 -26 -9 -5 24 13 19 27 35 32 35 5 0 17 7
26 15 14 12 23 13 45 5 20 -7 31 -8 39 0 7 7 5 10 -7 10 -21 0 -22 33 -2 50
22 19 3 35 -24 21 -27 -15 -28 3 -2 21 15 11 19 23 16 53 -4 43 13 95 31 95 7
0 9 -10 6 -25 -3 -18 0 -25 12 -25 12 0 16 10 16 38 0 21 -5 43 -12 50 -9 9
-8 22 2 54 18 62 53 151 63 165 5 7 7 24 3 37 -4 18 -1 25 14 29 14 3 20 14
20 31 0 26 14 57 61 131 13 22 30 49 37 60 44 71 59 89 104 125 28 22 55 40
60 40 6 0 22 -13 37 -29 37 -40 67 -48 81 -21 6 11 16 18 21 14 7 -4 7 -10 0
-17 -6 -6 -11 -19 -11 -30 0 -15 -5 -17 -27 -13 -37 8 -57 -6 -50 -35 4 -15 0
-27 -11 -35 -25 -19 -3 -36 36 -28 35 7 44 34 12 34 -18 0 -19 3 -10 20 8 15
17 19 31 15 15 -5 22 -2 25 13 4 12 19 22 42 28 26 6 41 18 50 37 8 16 20 31
28 34 22 8 16 25 -6 18 -25 -8 -26 7 -1 29 17 16 20 16 35 1 20 -20 48 -13 40
10 -4 10 0 15 12 15 43 1 69 45 40 69 -7 6 -11 22 -9 35 4 19 13 25 39 28 29
3 34 1 34 -18 0 -12 -7 -27 -15 -34 -8 -7 -15 -19 -15 -26 0 -20 30 -17 36 4
12 37 22 47 50 48 48 2 54 4 54 14 0 6 -15 10 -34 10 -44 0 -55 25 -25 56 12
13 25 21 30 19 13 -8 39 6 39 22 0 8 -9 17 -20 20 -11 3 -20 10 -20 15 0 5 9
7 20 3 27 -9 39 1 33 25 -6 24 -53 28 -53 5 0 -8 -6 -15 -14 -15 -8 0 -18 -9
-21 -20 -9 -28 -29 -25 -21 3 3 12 6 25 6 30 0 4 7 7 15 7 9 0 18 7 22 16 8
22 73 45 66 23 -3 -8 101 -4 115 5 19 11 1 38 -21 32 -12 -3 -27 0 -34 6 -7 6
-24 8 -38 6 -16 -4 -25 -1 -25 8 0 7 10 14 22 16 12 2 28 14 34 26 15 30 57
52 85 45 23 -6 39 10 39 40 0 11 -8 17 -21 17 -19 0 -20 2 -8 16 8 10 15 12
17 5 2 -6 12 -11 23 -11 10 0 19 -7 19 -15 0 -8 6 -15 13 -16 6 0 2 -5 -10
-11 -13 -6 -23 -15 -23 -20 0 -11 27 -10 35 2 3 5 13 6 22 3 13 -5 12 -8 -8
-16 -13 -6 -29 -9 -36 -8 -7 1 -17 -8 -23 -19 -9 -17 -14 -19 -26 -9 -11 9
-18 8 -32 -5 -10 -9 -26 -16 -35 -16 -9 0 -17 -7 -17 -15 0 -18 18 -19 56 -5
30 12 44 6 26 -12 -18 -18 -14 -33 13 -48 14 -7 25 -19 25 -27 0 -18 25 -17
40 2 15 18 42 20 39 3 -1 -7 -1 -25 0 -40 1 -26 4 -28 42 -28 43 0 52 22 11
28 -28 4 -29 22 -2 22 11 0 20 6 20 13 0 21 -11 27 -31 16 -26 -14 -24 5 3 23
14 9 19 20 15 31 -7 19 -37 12 -37 -9 0 -8 -7 -14 -15 -14 -19 0 -19 14 -1 30
8 6 12 18 10 25 -6 16 57 38 67 23 3 -4 21 -3 39 2 47 13 55 13 41 -4 -6 -7
-9 -21 -5 -30 4 -11 1 -16 -10 -16 -9 0 -16 5 -16 10 0 22 -30 8 -45 -21 -15
-28 -15 -32 0 -43 9 -7 18 -24 18 -39 1 -15 5 -27 9 -27 3 0 0 -13 -8 -30 -15
-30 -19 -32 -61 -34 -26 -1 -31 -21 -5 -21 35 -1 62 -17 62 -36 0 -14 6 -19
18 -17 10 2 17 13 17 26 0 13 7 27 15 32 8 5 11 12 7 16 -3 4 -13 1 -22 -6
-27 -22 -28 -3 -1 21 24 23 28 41 15 64 -4 6 -9 22 -13 38 -5 23 -3 27 14 27
11 0 20 -6 20 -14 0 -8 10 -16 22 -18 31 -4 36 -35 7 -40 -20 -2 -23 -9 -24
-43 0 -22 -5 -47 -10 -55 -5 -8 -10 -19 -11 -25 -1 -5 -7 -22 -13 -38 -9 -24
-13 -26 -31 -15 -16 10 -25 10 -49 -5 -16 -9 -36 -17 -44 -17 -21 0 -27 -12
-20 -38 7 -28 21 -28 33 1 5 12 9 16 9 10 1 -18 41 -16 41 1 0 20 38 30 56 15
11 -9 18 -8 34 6 18 16 20 16 20 2 0 -10 -6 -17 -14 -17 -24 0 -29 -20 -11
-40 15 -17 15 -19 -4 -25 -13 -4 -27 1 -40 14 -34 34 -69 23 -56 -18 4 -12 12
-17 24 -14 23 6 38 -14 22 -30 -21 -21 -12 -48 19 -60 43 -16 41 -19 -32 -55
-5 -2 -8 6 -8 17 0 14 -6 21 -19 21 -27 0 -33 -14 -19 -45 9 -21 9 -31 -1 -48
-10 -15 -11 -22 -2 -25 19 -6 12 -20 -14 -26 -26 -7 -35 -41 -12 -49 7 -2 8
-8 3 -13 -5 -5 -11 -4 -13 4 -3 6 -13 12 -23 12 -13 0 -17 -5 -13 -20 3 -11
12 -20 19 -20 8 0 14 -6 14 -13 0 -9 -12 -11 -39 -9 -42 4 -68 -16 -32 -25 28
-7 28 -43 1 -43 -23 0 -26 -10 -8 -28 9 -9 8 -12 -7 -11 -11 0 -29 4 -39 8
-19 7 -19 8 3 14 20 5 22 10 16 39 -10 44 -11 45 -45 20 -41 -31 -70 -26 -38
6 9 9 6 12 -15 12 -37 0 -34 -16 9 -57 20 -19 34 -37 30 -40 -3 -3 3 -14 14
-23 18 -16 26 -16 63 -5 23 7 42 18 43 26 2 35 5 39 24 39 26 0 25 -2 -6 -56
-16 -26 -32 -43 -39 -40 -7 2 -21 -1 -32 -9 -17 -13 -16 -14 10 -20 34 -9 33
-40 0 -40 -13 0 -23 -4 -22 -10 0 -5 9 -10 20 -9 17 1 18 -4 13 -35 -7 -40
-14 -53 -14 -28 0 10 -4 17 -8 17 -5 0 -23 13 -40 29 -35 30 -71 32 -94 3 -11
-13 -10 -15 12 -9 27 7 65 -11 43 -20 -9 -3 -9 -11 3 -29 15 -22 15 -24 0 -30
-10 -4 -15 -12 -12 -19 8 -21 -16 -45 -59 -59 -30 -11 -41 -21 -47 -42 -4 -16
-17 -35 -29 -42 -18 -11 -23 -11 -34 4 -15 21 -9 44 10 44 18 0 30 39 16 53
-8 8 -17 5 -34 -11 -13 -12 -35 -22 -50 -22 -36 0 -34 -22 3 -38 25 -12 28
-17 20 -33 -6 -10 -22 -22 -35 -25 -14 -3 -25 -13 -25 -21 0 -12 8 -14 35 -10
21 3 33 2 30 -4 -4 -5 -14 -9 -24 -9 -22 0 -45 -25 -36 -40 3 -5 1 -10 -4 -10
-6 0 -11 4 -11 8 0 5 -22 9 -50 10 -34 0 -50 -3 -50 -12 0 -6 -15 -27 -33 -44
-30 -29 -35 -31 -47 -17 -7 8 -19 15 -26 15 -19 0 -18 -24 1 -40 8 -7 15 -18
15 -24 0 -17 -60 -109 -67 -102 -3 3 0 12 6 20 9 11 9 16 0 22 -7 4 -17 0 -24
-9 -7 -10 -18 -17 -25 -17 -28 0 -80 -25 -80 -37 0 -12 20 -12 66 2 6 2 16 0
23 -4 8 -5 0 -22 -25 -55 -27 -36 -34 -53 -30 -72 8 -29 17 -30 40 -5 10 11
24 17 31 15 12 -5 75 76 75 97 0 5 8 13 17 16 18 7 44 32 100 96 17 21 39 37
47 37 9 0 43 -11 75 -24 42 -18 71 -24 105 -21 44 4 52 9 132 90 46 48 84 92
84 98 0 5 17 33 38 61 74 99 81 116 91 223 7 82 15 111 37 149 15 26 30 42 32
36 2 -7 8 -9 14 -6 7 4 6 9 -2 14 -20 13 -1 31 26 24 21 -5 26 -2 35 25 6 17
15 31 20 31 5 0 13 10 18 22 6 17 21 25 62 33 64 12 67 30 5 30 -24 0 -47 3
-50 6 -8 7 20 75 34 84 5 3 18 2 27 -4 16 -8 15 -11 -10 -20 -24 -9 -26 -14
-17 -31 13 -24 19 -25 49 -3 23 16 25 15 55 -20 35 -41 50 -45 65 -19 9 15 12
15 21 2 7 -11 4 -17 -11 -24 -22 -11 -20 -29 4 -34 11 -2 17 3 17 17 0 19 39
51 41 34 1 -4 3 -24 5 -43 5 -42 19 -59 36 -42 7 7 16 12 20 12 4 0 -1 -9 -12
-20 -11 -11 -20 -24 -20 -30 0 -5 -6 -10 -14 -10 -17 0 -77 -60 -70 -71 8 -13
36 2 30 17 -3 7 4 16 17 20 12 4 26 12 32 19 16 20 85 7 85 -15 0 -10 -9 -20
-20 -23 -29 -8 -25 -30 4 -25 18 4 28 -1 37 -19 11 -20 10 -25 -7 -37 -29 -21
-11 -29 36 -16 36 10 45 9 58 -4 14 -14 14 -16 -1 -22 -9 -3 -17 -12 -17 -20
0 -8 -6 -14 -14 -14 -8 0 -22 -3 -32 -7 -12 -5 -15 -3 -9 6 10 17 -14 32 -37
25 -10 -3 -26 0 -37 5 -13 7 -22 8 -26 1 -3 -5 -2 -10 4 -10 5 0 12 -9 16 -20
5 -15 12 -18 34 -14 26 6 28 4 24 -20 -4 -17 -11 -25 -21 -24 -8 2 -17 -3 -19
-9 -3 -8 4 -13 16 -13 12 0 21 5 21 10 0 6 13 10 30 10 16 0 33 6 37 14 4 7
19 15 33 18 14 3 32 7 40 9 11 3 14 -3 12 -20 -4 -22 -1 -24 35 -18 33 5 36 4
21 -7 -10 -7 -18 -21 -18 -30 0 -26 -19 -56 -35 -56 -24 0 -17 -19 10 -26 19
-5 30 0 49 22 14 17 20 31 14 35 -7 4 -6 9 2 14 6 4 17 -1 24 -10 7 -10 19
-16 26 -13 7 2 24 -6 38 -19 25 -23 56 -30 66 -14 7 11 56 21 56 11 0 -12 -26
-31 -33 -24 -3 4 -21 1 -39 -5 -28 -10 -35 -9 -46 6 -10 14 -16 15 -30 5 -9
-7 -27 -16 -39 -22 -23 -10 -30 -25 -15 -34 5 -3 21 2 36 10 35 17 36 17 36
-1 0 -8 -9 -15 -19 -15 -25 0 -38 -20 -20 -31 24 -15 46 -10 78 17 27 23 32
24 46 11 23 -23 9 -48 -22 -40 -26 6 -26 5 -21 -46 4 -40 2 -54 -9 -58 -8 -3
-18 0 -23 7 -4 7 -34 13 -71 15 -45 3 -67 8 -76 21 -11 16 -14 16 -47 0 -25
-12 -36 -24 -38 -44 -3 -23 -9 -28 -40 -32 -29 -4 -35 -8 -29 -19 6 -9 15 -11
27 -6 11 4 26 7 36 6 9 -1 24 11 34 28 26 43 43 47 51 10 7 -36 23 -45 52 -29
21 11 31 -3 11 -15 -15 -9 -12 -45 3 -45 8 0 22 9 32 20 10 11 26 20 35 20 10
0 23 7 30 15 10 12 16 13 26 4 26 -21 15 -37 -32 -44 -34 -5 -48 -12 -51 -26
-3 -10 -9 -19 -13 -19 -5 0 -16 -3 -25 -6 -9 -4 -15 -3 -14 2 4 20 -27 74 -40
72 -16 -3 -20 -45 -7 -66 5 -8 1 -18 -10 -26 -16 -12 -16 -17 -4 -45 10 -24
10 -35 1 -44 -8 -8 -11 -7 -11 4 0 20 -23 69 -32 69 -5 0 -8 5 -8 10 0 6 9 10
21 10 12 0 19 5 16 13 -4 11 -71 12 -89 0 -14 -8 -8 -43 7 -43 13 0 45 -48 45
-68 0 -5 -17 -9 -37 -8 -28 1 -38 -3 -41 -16 -2 -12 3 -18 16 -18 24 0 60 -31
55 -47 -7 -19 -43 -16 -43 3 0 10 -7 14 -22 12 -18 -2 -22 -9 -20 -30 3 -29
-9 -35 -73 -39 -57 -4 -73 0 -71 19 1 14 -6 16 -37 14 -35 -3 -37 -2 -28 17
14 25 -3 38 -24 21 -17 -14 -20 -40 -4 -40 5 0 7 -5 4 -10 -3 -6 2 -13 12 -16
10 -3 25 -8 33 -12 8 -3 18 -4 23 -4 11 3 9 -36 -3 -43 -6 -3 -7 1 -4 9 4 11
0 16 -10 16 -9 0 -16 -6 -16 -14 0 -8 -11 -23 -25 -34 -14 -11 -25 -26 -25
-34 0 -8 -11 -25 -25 -38 -14 -13 -40 -47 -57 -74 -18 -28 -49 -70 -70 -93
-42 -47 -52 -93 -19 -93 10 0 24 7 31 15 7 9 19 14 26 11 8 -3 35 22 64 57
131 161 192 201 269 179 49 -15 106 -15 170 0 65 15 162 103 184 169 21 62 39
99 48 99 4 0 10 10 13 23 8 30 31 55 96 106 60 47 83 80 87 126 3 41 13 86 23
110 15 34 29 117 36 216 7 99 17 139 34 139 12 0 128 -117 178 -180 20 -25 48
-58 63 -75 22 -25 28 -42 31 -97 3 -37 1 -71 -5 -77 -11 -11 13 -71 29 -71 6
0 19 9 29 20 17 18 45 27 45 14 0 -18 -24 -44 -41 -44 -11 0 -30 -5 -41 -11
-21 -11 -21 -12 -3 -25 16 -12 17 -14 2 -20 -24 -9 -21 -31 5 -37 12 -4 23 -5
24 -4 0 1 7 22 15 46 11 35 19 45 38 46 13 1 28 9 33 18 10 18 34 23 40 7 9
-26 100 -107 134 -119 21 -7 53 -27 71 -43 38 -36 103 -51 184 -42 71 8 106
-9 137 -66 12 -23 20 -45 17 -49 -2 -4 21 -7 52 -7 31 1 58 6 60 11 1 6 -21
22 -50 38 -40 21 -56 36 -65 61 -17 47 -52 58 -178 60 l-106 1 -29 35 c-16 19
-37 44 -47 55 -10 11 -29 35 -42 52 -13 18 -50 51 -82 74 -37 25 -57 46 -54
55 3 7 1 16 -4 19 -6 4 -10 14 -10 25 0 10 -26 47 -57 83 -32 35 -74 84 -93
107 -117 144 -207 227 -280 256 -48 19 -84 15 -220 -25 -168 -50 -181 -53
-224 -46 -47 8 -106 36 -126 60 -7 9 -30 53 -50 98 -20 45 -49 102 -65 127
-16 25 -42 69 -58 99 -55 106 -78 132 -164 187 -62 39 -85 69 -99 129 -11 46
-5 70 42 186 24 59 44 119 44 133 0 38 -20 112 -50 191 -41 105 -45 148 -19
251 21 84 22 149 5 233 -6 26 74 202 107 236 54 56 143 226 132 254 -3 8 1 29
9 46 8 16 18 47 21 68 3 20 12 37 19 37 17 0 50 -63 70 -135 10 -33 21 -73 26
-90 4 -16 16 -66 25 -110 9 -44 23 -93 30 -110 21 -51 36 -167 22 -183 -9 -11
-7 -17 6 -27 22 -16 22 -34 0 -51 -17 -13 -16 -15 7 -33 25 -20 25 -20 7 -50
-14 -24 -15 -35 -7 -51 6 -11 8 -20 4 -20 -3 0 -1 -6 5 -14 9 -11 7 -15 -10
-19 -18 -5 -21 -12 -18 -59 1 -29 -1 -61 -6 -71 -11 -25 1 -32 32 -18 22 10
29 9 42 -3 14 -15 13 -16 -5 -16 -11 0 -35 -16 -53 -35 -30 -32 -32 -38 -19
-53 21 -24 29 -50 18 -57 -16 -10 -11 -35 5 -35 9 0 25 -9 37 -20 26 -24 48
-26 48 -5 0 8 18 32 40 54 41 39 52 71 25 71 -8 0 -19 -8 -24 -18 -15 -27 -81
-76 -81 -60 0 8 14 22 30 31 30 18 40 50 20 62 -6 4 -17 2 -23 -4 -7 -5 -23
-7 -36 -4 -20 5 -18 8 24 29 25 13 48 24 51 24 2 0 4 -12 4 -26 0 -24 3 -26
31 -20 16 3 37 12 45 20 22 22 53 29 70 15 8 -7 34 -44 57 -83 23 -39 47 -80
54 -91 6 -11 18 -34 26 -50 8 -17 35 -61 61 -98 25 -38 46 -72 46 -76 0 -5 7
-14 15 -21 8 -7 15 -20 15 -29 0 -27 83 -141 113 -154 29 -13 33 -27 16 -59
-7 -13 -8 -23 -1 -27 5 -3 11 -15 13 -26 3 -12 14 -21 27 -23 26 -4 27 -10 6
-33 -20 -23 -11 -49 16 -49 17 0 20 -4 15 -20 -7 -21 9 -50 26 -50 5 0 14 11
19 25 5 14 17 25 25 25 9 0 14 -4 10 -10 -8 -13 50 -41 69 -34 9 3 19 18 23
33 8 34 34 70 51 71 13 0 162 -143 162 -156 0 -4 28 -39 63 -78 35 -39 96
-111 135 -161 39 -49 78 -98 86 -107 9 -10 16 -22 16 -27 0 -18 16 -19 75 -6
33 8 69 12 80 9 11 -3 29 2 40 10 20 14 20 15 -2 38 -30 32 -29 48 2 48 17 0
23 -4 19 -14 -3 -8 -1 -24 6 -35 8 -16 8 -27 -1 -42 -17 -32 8 -53 45 -39 16
6 34 6 44 1 19 -9 42 -4 42 10 0 5 -6 9 -14 9 -19 0 -46 27 -46 46 0 41 85 -7
103 -59 8 -21 35 -33 48 -20 15 15 -11 73 -37 83 -37 15 -32 54 9 70 17 8 40
20 50 29 17 14 20 14 31 -1 6 -9 23 -18 36 -21 l25 -4 -22 -8 c-24 -8 -30 -29
-13 -40 6 -4 8 -10 5 -15 -3 -5 3 -14 13 -19 14 -7 18 -18 15 -36 -6 -29 5
-32 48 -9 37 18 33 40 -7 37 l-29 -2 23 19 c25 21 29 35 7 26 -18 -7 -19 4 -3
39 10 21 9 29 -5 42 -13 13 -19 15 -29 5 -18 -18 -40 -15 -36 5 2 10 17 20 38
24 45 10 65 -8 65 -61 0 -32 3 -40 17 -40 21 0 25 -35 6 -43 -8 -4 -4 -8 10
-12 29 -10 28 -17 -8 -38 -34 -21 -37 -29 -14 -52 12 -12 19 -13 29 -5 8 6 12
17 9 25 -12 31 18 23 37 -9 24 -42 54 -47 63 -12 3 14 15 27 25 31 19 6 19 8
-5 63 -14 31 -34 73 -45 92 -11 19 -33 62 -48 96 -36 77 -75 109 -148 124
-166 33 -165 32 -155 170 12 185 9 271 -13 319 l-19 43 23 42 c13 22 39 70 58
106 30 56 89 155 101 170 8 10 71 -73 78 -104 6 -27 76 -188 105 -240 15 -25
20 -53 22 -107 1 -25 8 -54 16 -63 9 -10 10 -16 2 -16 -6 0 -11 -14 -11 -31 0
-28 2 -31 25 -25 15 4 25 2 25 -4 0 -6 -11 -15 -25 -20 -19 -7 -25 -17 -25
-40 0 -30 2 -31 38 -28 29 2 36 7 34 21 -2 10 3 17 13 17 12 0 15 -6 10 -19
-7 -24 11 -37 31 -20 12 10 20 8 42 -9 15 -12 45 -34 67 -49 129 -88 182 -133
256 -216 46 -51 89 -93 96 -95 18 -5 16 -29 -3 -36 -25 -10 -6 -25 26 -21 36
5 42 -19 8 -29 -22 -5 -21 -7 17 -46 25 -25 39 -49 37 -61 -3 -15 3 -19 27
-19 16 0 33 -5 37 -12 5 -7 2 -9 -8 -6 -8 4 -21 2 -29 -2 -10 -7 -7 -14 15
-31 24 -19 26 -23 12 -31 -17 -9 -44 -61 -51 -97 -7 -35 -26 -53 -51 -47 -12
3 -35 -1 -50 -9 -16 -8 -37 -15 -46 -15 -20 0 -25 -20 -5 -20 6 0 1 -9 -13
-19 l-24 -19 27 -13 c15 -7 27 -16 27 -20 0 -16 -19 -19 -71 -10 -30 5 -84 13
-121 16 l-67 7 -56 -53 c-30 -30 -55 -59 -55 -65 0 -6 -30 -40 -66 -74 -62
-58 -66 -63 -55 -87 10 -23 15 -24 53 -18 34 6 52 18 88 58 25 28 52 62 61 76
39 63 64 71 164 51 52 -10 69 -10 126 7 60 17 70 23 125 88 34 39 81 83 105
100 24 16 53 37 64 47 11 10 30 25 43 35 20 16 25 32 34 128 6 61 14 114 18
118 4 5 18 -6 31 -25 13 -18 29 -37 36 -43 33 -27 203 -290 203 -315 0 -4 23
-42 50 -84 74 -113 150 -184 253 -234 48 -24 89 -47 92 -52 7 -11 92 -50 110
-50 7 0 18 -6 24 -14 6 -8 37 -15 71 -18 40 -3 77 -14 120 -36 66 -35 80 -34
80 3 0 71 -54 108 -375 259 -144 68 -182 105 -276 264 -78 131 -94 160 -109
191 -6 13 -23 39 -38 56 -51 60 -61 74 -77 104 -8 17 -25 41 -38 54 -12 14
-33 41 -47 60 -34 50 -72 65 -165 71 -100 5 -181 30 -214 65 -107 114 -144
152 -192 196 -30 28 -66 57 -81 65 -14 8 -54 34 -88 58 -34 23 -65 42 -69 42
-13 0 -59 55 -74 90 -9 19 -19 51 -22 70 -4 19 -11 40 -15 45 -4 6 -18 39 -30
75 -12 36 -37 101 -55 145 -18 44 -37 94 -42 110 -5 17 -34 63 -63 103 -63 86
-168 158 -213 147 -14 -4 -64 -41 -110 -83 -46 -43 -103 -93 -125 -112 -106
-89 -241 -243 -242 -274 0 -4 -14 -28 -30 -53 -17 -24 -30 -48 -30 -52 0 -5
-7 -15 -16 -22 -18 -15 -74 -101 -91 -141 -7 -15 -30 -39 -53 -53 -22 -14 -40
-30 -40 -35 0 -23 -38 -6 -79 35 -32 32 -68 54 -130 79 -48 19 -111 50 -141
70 -30 20 -59 36 -66 36 -11 0 -122 183 -145 240 -7 19 -33 58 -56 87 -24 29
-43 57 -43 63 0 5 -4 10 -9 10 -5 0 -18 21 -30 48 -35 79 -126 218 -185 284
-68 76 -108 151 -131 243 -9 39 -21 75 -25 80 -4 6 -11 35 -15 65 -3 30 -20
111 -36 180 -56 240 -89 331 -137 382 -42 44 -143 96 -203 104 -38 5 -50 2
-84 -23z m-330 -793 c3 -5 -1 -10 -10 -10 -9 0 -13 5 -10 10 3 6 8 10 10 10 2
0 7 -4 10 -10z m110 -90 c-3 -5 -14 -10 -23 -10 -15 0 -15 2 -2 10 20 13 33
13 25 0z m-228 -87 c-9 -9 -20 -13 -24 -9 -4 4 -1 11 7 16 25 16 35 11 17 -7z
m148 7 c10 -16 -3 -29 -25 -23 -16 4 -18 8 -9 19 14 17 25 18 34 4z m81 -38
c-4 -3 -12 0 -19 7 -9 9 -9 14 3 21 11 7 16 5 18 -6 2 -9 1 -18 -2 -22z m-256
-82 c0 -11 -4 -20 -9 -20 -7 0 -8 17 -2 38 4 10 11 -2 11 -18z m205 -30 c3 -5
-1 -10 -9 -10 -9 0 -16 5 -16 10 0 6 4 10 9 10 6 0 13 -4 16 -10z m-92 -17
c19 -9 27 -18 19 -21 -22 -7 -62 8 -62 23 0 19 4 19 43 -2z m810 -18 c1 -6
-11 -11 -28 -13 -29 -3 -29 -3 -10 12 21 16 35 17 38 1z m107 -40 c0 -8 -8
-11 -19 -8 -13 3 -21 -2 -26 -16 -4 -13 -11 -18 -22 -14 -13 5 -13 8 4 22 11
9 23 24 27 35 5 15 9 16 21 6 8 -7 15 -18 15 -25z m-1070 -15 c0 -5 -5 -10
-11 -10 -5 0 -7 5 -4 10 3 6 8 10 11 10 2 0 4 -4 4 -10z m260 1 c0 -5 -7 -14
-15 -21 -8 -7 -15 -19 -15 -27 0 -8 -6 -12 -12 -9 -7 3 -21 9 -30 12 -10 4
-18 10 -18 15 0 5 6 6 14 3 8 -3 23 3 33 14 19 21 43 28 43 13z m-155 -11 c3
-5 -1 -10 -9 -10 -8 0 -18 5 -21 10 -3 6 1 10 9 10 8 0 18 -4 21 -10z m-135
-38 c0 -12 -23 -32 -37 -32 -17 0 -17 27 0 33 19 8 37 8 37 -1z m57 -41 c10
-15 9 -20 -2 -25 -8 -3 -15 -1 -15 3 0 5 -3 16 -6 25 -9 22 9 20 23 -3z m97
10 c3 -5 -1 -11 -9 -15 -9 -3 -15 0 -15 9 0 16 16 20 24 6z m156 0 c0 -5 -7
-11 -15 -15 -8 -3 -15 -13 -15 -22 0 -10 -3 -14 -7 -11 -8 8 17 57 29 57 4 0
8 -4 8 -9z m-106 -63 c-5 -7 -9 -20 -9 -28 0 -11 -9 -14 -30 -11 -38 4 -45 8
-45 28 0 9 6 13 15 10 7 -3 24 2 37 13 24 19 46 11 32 -12z m131 -36 c-2 -2
-13 2 -25 8 -18 9 -19 14 -9 26 11 13 14 12 25 -8 7 -13 11 -24 9 -26z m-402
21 c-7 -2 -21 -2 -30 0 -10 3 -4 5 12 5 17 0 24 -2 18 -5z m338 -33 c23 -13
25 -30 4 -30 -8 0 -24 -9 -35 -20 -17 -17 -23 -18 -40 -8 -28 18 -25 38 5 38
14 0 28 7 31 15 7 18 9 18 35 5z m-391 -59 c0 -17 -3 -18 -25 -8 -21 10 -22
13 -7 19 27 11 32 9 32 -11z m430 -21 c0 -5 -4 -10 -10 -10 -5 0 -10 5 -10 10
0 6 5 10 10 10 6 0 10 -4 10 -10z m42 -30 c-24 -23 -28 -46 -9 -53 9 -4 9 -6
-1 -6 -7 -1 -16 9 -21 21 -10 28 7 58 33 58 19 0 19 -1 -2 -20z m-296 -16 c-4
-9 -1 -23 5 -31 10 -11 9 -17 -3 -29 -14 -14 -17 -13 -36 11 l-22 27 23 19
c27 23 41 24 33 3z m2569 -62 c-3 -3 -11 0 -18 7 -9 10 -8 11 6 5 10 -3 15 -9
12 -12z m-2865 -11 c0 -9 -41 -23 -48 -16 -2 2 -1 8 3 14 8 13 45 15 45 2z
m-160 -71 c-8 -5 -22 -10 -30 -10 -13 0 -13 1 0 10 8 5 22 10 30 10 13 0 13
-1 0 -10z m58 -72 c-7 -19 -57 -32 -81 -20 -20 10 -18 11 15 11 20 1 40 6 43
11 9 14 28 13 23 -2z m-117 -40 c1 -7 1 -17 0 -22 -1 -4 3 -14 9 -21 7 -8 7
-21 1 -38 -8 -21 -16 -25 -46 -24 -20 1 -34 6 -32 11 2 6 11 10 21 8 10 -2 16
4 16 17 0 11 5 23 10 26 7 4 7 12 0 24 -9 18 -4 31 12 31 4 0 9 -6 9 -12z
m-151 -118 c0 -5 -5 -10 -11 -10 -5 0 -7 5 -4 10 3 6 8 10 11 10 2 0 4 -4 4
-10z m200 0 c0 -5 -5 -10 -11 -10 -5 0 -7 5 -4 10 3 6 8 10 11 10 2 0 4 -4 4
-10z m2915 0 c-3 -5 -13 -10 -21 -10 -8 0 -12 5 -9 10 3 6 13 10 21 10 8 0 12
-4 9 -10z m108 -31 c-4 -15 -8 -17 -14 -8 -6 11 4 28 18 29 0 0 -1 -9 -4 -21z
m-3145 -11 c-2 -6 -15 -18 -28 -27 -20 -14 -23 -14 -15 -1 22 36 52 56 43 28z
m2172 3 c0 -5 -7 -11 -14 -14 -10 -4 -13 -1 -9 9 6 15 23 19 23 5z m-2270 -8
c0 -12 -52 -33 -63 -26 -13 8 21 33 45 33 10 0 18 -3 18 -7z m3154 -12 c13 -5
16 -10 9 -14 -7 -4 -14 -3 -18 2 -3 6 -12 8 -20 4 -8 -3 -15 0 -15 6 0 12 16
13 44 2z m-2209 -31 c-3 -5 -11 -10 -16 -10 -6 0 -7 5 -4 10 3 6 11 10 16 10
6 0 7 -4 4 -10z m2285 -20 c0 -5 -9 -10 -20 -10 -11 0 -20 5 -20 10 0 6 9 10
20 10 11 0 20 -4 20 -10z m-2170 -25 c0 -8 -4 -15 -10 -15 -5 0 -10 7 -10 15
0 8 5 15 10 15 6 0 10 -7 10 -15z m1955 -15 c3 -5 1 -10 -4 -10 -6 0 -11 5
-11 10 0 6 2 10 4 10 3 0 8 -4 11 -10z m95 -6 c0 -8 -4 -12 -10 -9 -5 3 -10
10 -10 16 0 5 5 9 10 9 6 0 10 -7 10 -16z m-820 -4 c0 -5 -4 -10 -10 -10 -5 0
-10 5 -10 10 0 6 5 10 10 10 6 0 10 -4 10 -10z m900 -20 c0 -5 -4 -10 -10 -10
-5 0 -10 5 -10 10 0 6 5 10 10 10 6 0 10 -4 10 -10z m-2279 -48 c-13 -26 -29
-42 -43 -44 -12 -2 -27 -13 -33 -25 -8 -15 -15 -19 -25 -13 -12 7 -11 12 4 29
11 12 26 21 35 21 23 0 42 14 45 32 2 18 27 51 33 44 2 -2 -5 -22 -16 -44z
m250 15 c-7 -7 -7 -14 -1 -23 7 -8 6 -13 -5 -17 -9 -4 -19 2 -25 13 -11 20
-11 20 -50 -2 -31 -18 -42 -20 -52 -10 -9 9 -8 12 10 12 12 0 22 6 22 14 0 18
20 25 52 19 14 -3 29 0 33 6 3 6 11 8 17 5 6 -4 6 -10 -1 -17z m2063 -51 c-6
-16 -8 -17 -16 -2 -11 19 0 42 13 29 6 -6 7 -18 3 -27z m-2006 -18 c5 -7 13
-24 17 -37 11 -36 -16 -22 -32 17 -13 32 -4 43 15 20z m1892 -8 c22 -22 19
-40 -6 -40 -8 0 -14 7 -14 15 0 8 -9 15 -20 15 -22 0 -27 15 -7 23 21 9 26 8
47 -13z m-1946 -50 c-6 -6 -19 -7 -30 -3 -17 6 -17 8 6 13 29 8 38 4 24 -10z
m-334 -35 c-7 -9 -15 -13 -17 -11 -7 7 7 26 19 26 6 0 6 -6 -2 -15z m2329 1
c18 -21 -21 -41 -49 -26 -26 14 -25 19 3 30 30 12 33 12 46 -4z m-139 -6 c0
-5 -4 -10 -9 -10 -6 0 -13 5 -16 10 -3 6 1 10 9 10 9 0 16 -4 16 -10z m230 0
c0 -5 -9 -10 -20 -10 -11 0 -20 5 -20 10 0 6 9 10 20 10 11 0 20 -4 20 -10z
m-170 -35 c0 -9 -9 -15 -25 -15 -24 0 -32 10 -18 23 12 13 43 7 43 -8z m-2305
-39 c-18 -26 -35 -26 -35 0 0 13 40 36 48 29 2 -2 -4 -15 -13 -29z m2465 10
c0 -18 -17 -24 -47 -18 -22 4 -22 5 -6 18 24 18 53 18 53 0z m265 -6 c-3 -5
-11 -10 -16 -10 -6 0 -7 5 -4 10 3 6 11 10 16 10 6 0 7 -4 4 -10z m-382 -19
c-5 -19 -37 -31 -61 -23 -16 5 27 41 50 42 11 0 15 -6 11 -19z m232 5 c19 -7
-50 -76 -75 -76 -30 0 -35 -21 -9 -41 28 -21 21 -32 -15 -23 -20 5 -24 9 -16
19 8 10 8 15 0 20 -17 10 5 32 40 39 30 5 40 28 20 41 -15 10 8 35 26 29 8 -2
21 -6 29 -8z m98 5 c17 -6 16 -8 -7 -19 -14 -6 -26 -18 -26 -27 0 -23 -27 -18
-33 6 -10 38 22 58 66 40z m-303 -61 c0 -5 -7 -10 -16 -10 -8 0 -12 5 -9 10 3
6 10 10 16 10 5 0 9 -4 9 -10z m-80 -10 c0 -5 -7 -10 -16 -10 -8 0 -12 5 -9
10 3 6 10 10 16 10 5 0 9 -4 9 -10z m-3568 -102 c-7 -7 -12 -8 -12 -2 0 14 12
26 19 19 2 -3 -1 -11 -7 -17z m4944 -63 c14 -13 14 -16 -1 -21 -16 -6 -34 9
-35 29 0 12 21 8 36 -8z m-3816 -65 c0 -5 -5 -10 -11 -10 -5 0 -7 5 -4 10 3 6
8 10 11 10 2 0 4 -4 4 -10z m-1166 -31 c-3 -5 -10 -7 -15 -3 -5 3 -7 10 -3 15
3 5 10 7 15 3 5 -3 7 -10 3 -15z m2196 -3 c0 -7 -11 -16 -25 -18 -28 -6 -27
-6 -19 16 8 20 44 21 44 2z m117 -32 c-3 -3 -12 -4 -19 -1 -8 3 -5 6 6 6 11 1
17 -2 13 -5z m-1219 -71 c-10 -9 -24 -12 -41 -7 -41 10 -32 23 14 22 36 0 39
-2 27 -15z m-32 -59 c-3 -9 -6 -18 -6 -20 0 -2 -4 -4 -9 -4 -5 0 -7 9 -4 20 3
11 10 20 15 20 6 0 7 -7 4 -16z m-81 -24 c-10 -11 -20 -18 -23 -15 -3 3 3 14
13 25 10 11 20 18 23 15 3 -3 -3 -14 -13 -25z m-1050 10 c-3 -5 -11 -10 -16
-10 -6 0 -7 5 -4 10 3 6 11 10 16 10 6 0 7 -4 4 -10z m1125 -40 c-6 -11 -16
-20 -22 -20 -6 0 -3 9 7 20 10 11 20 20 22 20 2 0 -1 -9 -7 -20z m-1210 -30
c-33 -26 -48 -26 -25 0 10 11 25 20 34 20 12 0 9 -6 -9 -20z m140 16 c0 -3 -4
-8 -10 -11 -5 -3 -10 -1 -10 4 0 6 5 11 10 11 6 0 10 -2 10 -4z m1020 -10 c0
-11 -19 -15 -25 -6 -3 5 1 10 9 10 9 0 16 -2 16 -4z m3820 0 c0 -3 -4 -8 -10
-11 -5 -3 -10 -1 -10 4 0 6 5 11 10 11 6 0 10 -2 10 -4z m-2484 -33 c-19 -20
-29 -24 -37 -16 -8 8 -3 15 18 26 42 22 47 20 19 -10z m-2736 -2 c0 -5 -9 -19
-20 -32 -17 -21 -19 -21 -13 -4 10 33 33 57 33 36z m100 -11 c0 -22 -14 -40
-31 -40 -14 0 -19 7 -19 29 0 25 3 28 25 23 14 -2 25 -8 25 -12z m1247 -26
c-4 -4 -19 -2 -33 5 -22 10 -24 14 -13 27 11 13 15 13 33 -5 11 -11 17 -24 13
-27z m-1080 20 c-3 -3 -12 -4 -19 -1 -8 3 -5 6 6 6 11 1 17 -2 13 -5z m2438
-64 c3 -5 1 -10 -4 -10 -6 0 -11 5 -11 10 0 6 2 10 4 10 3 0 8 -4 11 -10z
m-2773 -24 c4 -22 3 -23 -18 -14 -13 6 -20 16 -17 24 8 22 30 16 35 -10z m143
14 c3 -5 -1 -10 -9 -10 -9 0 -16 5 -16 10 0 6 4 10 9 10 6 0 13 -4 16 -10z
m2685 0 c0 -12 -41 -50 -54 -50 -6 0 -3 5 7 11 9 5 17 16 17 24 0 11 8 18 28
24 1 1 2 -3 2 -9z m-2711 -46 c9 -8 -34 -34 -53 -31 -10 1 -23 13 -28 26 -8
23 -7 23 34 17 23 -4 44 -9 47 -12z m2600 -61 c-27 -25 -52 -44 -55 -41 -9 9
71 88 89 88 10 0 -3 -18 -34 -47z m-89 -18 c0 -2 -9 -9 -20 -15 -24 -13 -50
-2 -29 11 15 9 49 12 49 4z m-60 -111 c0 -11 -5 -14 -16 -10 -9 3 -18 6 -20 6
-3 0 -2 5 1 10 10 16 35 12 35 -6z m-3040 -54 c0 -5 -5 -10 -11 -10 -5 0 -7 5
-4 10 3 6 8 10 11 10 2 0 4 -4 4 -10z m3030 -20 c0 -5 -2 -10 -4 -10 -3 0 -8
5 -11 10 -3 6 -1 10 4 10 6 0 11 -4 11 -10z m-3123 -22 c-3 -8 -6 -5 -6 6 -1
11 2 17 5 13 3 -3 4 -12 1 -19z m113 -63 c-25 -26 -40 -32 -40 -15 0 6 6 10
14 10 8 0 16 7 20 15 3 8 11 15 17 15 7 0 2 -11 -11 -25z m2944 0 c4 -12 -4
-15 -42 -14 -33 2 -38 3 -17 6 17 3 34 9 40 14 12 12 12 12 19 -6z m-3149 -51
c-12 -24 -15 -25 -15 -8 0 11 5 25 12 32 18 18 20 8 3 -24z"/>
<path d="M3910 5260 c-18 -4 -26 -14 -28 -33 -3 -25 -1 -27 33 -27 41 0 54 19
33 48 -9 13 -20 17 -38 12z"/>
<path d="M3865 5163 c4 -16 8 -57 8 -93 2 -73 19 -87 47 -38 12 23 13 31 2 49
-7 11 -10 30 -6 41 8 27 -15 68 -39 68 -16 0 -18 -5 -12 -27z"/>
<path d="M2920 5115 c-15 -18 -6 -45 16 -45 10 0 14 -5 10 -15 -4 -10 1 -15
14 -15 23 0 25 17 5 43 -7 11 -11 25 -8 33 7 19 -21 18 -37 -1z"/>
<path d="M3042 5078 c-16 -16 -15 -38 2 -38 17 0 30 30 18 42 -4 4 -13 3 -20
-4z"/>
<path d="M2852 5059 c2 -6 8 -10 13 -10 5 0 11 4 13 10 2 6 -4 11 -13 11 -9 0
-15 -5 -13 -11z"/>
<path d="M2813 5018 c2 -7 10 -13 17 -13 7 0 15 6 18 13 2 7 -5 12 -18 12 -13
0 -20 -5 -17 -12z"/>
<path d="M2967 5023 c-11 -20 -16 -63 -8 -63 19 0 39 30 34 50 -5 20 -18 26
-26 13z"/>
<path d="M2890 5009 c0 -5 5 -7 10 -4 6 3 10 8 10 11 0 2 -4 4 -10 4 -5 0 -10
-5 -10 -11z"/>
<path d="M2842 4979 c2 -6 8 -10 13 -10 5 0 11 4 13 10 2 6 -4 11 -13 11 -9 0
-15 -5 -13 -11z"/>
<path d="M3012 4978 c-17 -17 -15 -25 11 -32 l22 -6 -24 -19 c-16 -12 -20 -20
-12 -25 13 -8 71 42 71 61 0 7 -9 13 -20 13 -11 0 -20 5 -20 10 0 14 -13 13
-28 -2z"/>
<path d="M3860 4950 c-15 -28 -3 -60 21 -60 16 0 19 5 14 20 -4 13 -1 22 9 26
20 8 9 34 -15 34 -10 0 -23 -9 -29 -20z"/>
<path d="M2863 4946 c-34 -16 -28 -29 10 -21 38 9 41 11 32 24 -7 13 -12 12
-42 -3z"/>
<path d="M3125 4950 c-3 -6 1 -13 10 -16 19 -8 30 0 20 15 -8 14 -22 14 -30 1z"/>
<path d="M2890 4906 c0 -2 11 -6 25 -8 14 -3 25 -1 25 3 0 5 -11 9 -25 9 -14
0 -25 -2 -25 -4z"/>
<path d="M3027 4883 c-10 -9 -9 -43 1 -43 10 0 42 33 42 43 0 9 -35 9 -43 0z"/>
<path d="M2713 4853 c-4 -10 -11 -21 -17 -25 -8 -5 -7 -11 0 -18 9 -9 17 -4
32 18 20 27 20 42 0 42 -5 0 -12 -8 -15 -17z"/>
<path d="M2785 4861 c-6 -11 9 -23 19 -14 9 9 7 23 -3 23 -6 0 -12 -4 -16 -9z"/>
<path d="M3851 4839 c-17 -38 -4 -55 27 -33 17 12 20 19 12 33 -5 10 -6 21 -3
25 3 3 0 6 -8 6 -8 0 -20 -14 -28 -31z"/>
<path d="M2600 4780 c0 -11 7 -20 15 -20 8 0 15 9 15 20 0 11 -7 20 -15 20 -8
0 -15 -9 -15 -20z"/>
<path d="M2727 4786 c-8 -21 4 -57 17 -53 18 6 20 67 3 67 -8 0 -17 -6 -20
-14z"/>
<path d="M3073 4752 c-12 -33 -19 -38 -39 -34 -17 3 -24 0 -24 -12 0 -13 8
-16 38 -13 39 4 62 31 62 75 0 35 -20 26 -37 -16z"/>
<path d="M3130 4745 c-16 -20 -10 -26 18 -18 12 3 22 12 22 19 0 19 -24 18
-40 -1z"/>
<path d="M2565 4739 c-8 -12 14 -31 30 -26 6 2 10 10 10 18 0 17 -31 24 -40 8z"/>
<path d="M2504 4709 c-3 -6 -2 -15 2 -19 12 -12 38 5 30 19 -9 14 -23 14 -32
0z"/>
<path d="M3845 4690 c-4 -7 -3 -16 3 -22 14 -14 45 -2 40 15 -6 16 -34 21 -43
7z"/>
<path d="M2602 4668 c6 -18 28 -21 28 -4 0 9 -7 16 -16 16 -9 0 -14 -5 -12
-12z"/>
<path d="M2235 4661 c-3 -6 3 -15 14 -20 27 -15 31 -14 31 9 0 21 -33 29 -45
11z"/>
<path d="M2523 4645 c-8 -21 2 -29 24 -20 10 5 24 9 32 9 8 1 16 7 18 14 7 19
-66 16 -74 -3z"/>
<path d="M3035 4649 c-4 -6 -4 -13 -1 -16 8 -8 36 5 36 17 0 13 -27 13 -35 -1z"/>
<path d="M2430 4628 c-22 -21 -22 -22 -4 -29 20 -7 44 13 44 38 0 19 -13 16
-40 -9z"/>
<path d="M3844 4635 c-4 -9 0 -23 9 -32 21 -21 49 -9 45 19 -4 28 -45 38 -54
13z"/>
<path d="M6107 4643 c-8 -14 2 -84 15 -114 12 -27 36 -38 51 -23 4 4 -1 19
-10 35 -16 26 -16 29 0 47 24 26 21 41 -9 52 -30 12 -41 12 -47 3z"/>
<path d="M2940 4622 c0 -5 -12 -14 -26 -20 -28 -13 -24 -32 7 -32 22 0 24 -11
7 -28 -9 -9 -9 -15 -1 -23 14 -14 36 -2 29 16 -2 7 1 18 7 24 8 8 7 11 -6 11
-10 0 -17 8 -17 20 0 11 7 20 15 20 8 0 15 5 15 10 0 6 -7 10 -15 10 -8 0 -15
-4 -15 -8z"/>
<path d="M2985 4600 c-8 -14 3 -30 21 -30 8 0 14 9 14 20 0 21 -24 28 -35 10z"/>
<path d="M2220 4590 c0 -5 7 -10 15 -10 8 0 15 5 15 10 0 6 -7 10 -15 10 -8 0
-15 -4 -15 -10z"/>
<path d="M2486 4591 c-3 -5 1 -14 8 -20 16 -13 32 2 21 19 -8 12 -22 13 -29 1z"/>
<path d="M2366 4568 c-19 -26 -21 -48 -5 -48 16 0 38 31 39 53 0 24 -16 21
-34 -5z"/>
<path d="M2805 4569 c-10 -15 3 -25 16 -12 7 7 7 13 1 17 -6 3 -14 1 -17 -5z"/>
<path d="M3052 4568 c5 -15 28 -18 29 -3 0 6 -7 12 -17 13 -10 3 -15 -1 -12
-10z"/>
<path d="M4667 4574 c-3 -3 -3 -12 -1 -19 4 -8 -3 -15 -17 -17 -12 -2 -24 -9
-27 -15 -5 -18 27 -28 48 -15 13 8 22 6 38 -10 24 -25 46 -15 39 18 -2 14 0
27 4 30 19 11 8 26 -15 20 -14 -3 -28 -2 -31 4 -7 11 -28 13 -38 4z"/>
<path d="M2216 4552 c-3 -5 -4 -26 -2 -48 3 -35 6 -39 35 -41 37 -3 38 3 10
57 -21 39 -33 48 -43 32z"/>
<path d="M2506 4531 c-4 -5 -3 -16 0 -25 4 -10 -1 -18 -11 -23 -17 -6 -17 -7
0 -19 21 -15 46 -8 38 12 -3 10 2 14 20 14 18 0 26 6 29 25 5 25 -7 35 -15 13
-4 -10 -7 -10 -18 0 -15 14 -35 16 -43 3z"/>
<path d="M3880 4520 c-15 -15 -19 -25 -12 -32 13 -13 41 -3 49 17 11 29 -13
39 -37 15z"/>
<path d="M2870 4514 c0 -16 23 -44 35 -44 17 0 20 16 5 25 -6 4 -8 11 -5 16 4
5 -3 9 -14 9 -12 0 -21 -3 -21 -6z"/>
<path d="M2950 4480 c0 -5 5 -10 10 -10 6 0 10 5 10 10 0 6 -4 10 -10 10 -5 0
-10 -4 -10 -10z"/>
<path d="M2640 4465 c0 -17 2 -18 24 -9 23 9 20 24 -4 24 -11 0 -20 -7 -20
-15z"/>
<path d="M4650 4455 c0 -8 7 -15 15 -15 8 0 15 7 15 15 0 8 -7 15 -15 15 -8 0
-15 -7 -15 -15z"/>
<path d="M2700 4451 c0 -11 26 -22 34 -14 12 12 5 23 -14 23 -11 0 -20 -4 -20
-9z"/>
<path d="M3010 4450 c0 -5 5 -10 10 -10 6 0 10 5 10 10 0 6 -4 10 -10 10 -5 0
-10 -4 -10 -10z"/>
<path d="M2775 4440 c4 -6 11 -8 16 -5 14 9 11 15 -7 15 -8 0 -12 -5 -9 -10z"/>
<path d="M3912 4434 c1 -9 9 -19 16 -22 9 -3 13 2 10 14 -1 9 -9 19 -16 22 -9
3 -13 -2 -10 -14z"/>
<path d="M4710 4430 c-21 -16 -22 -20 -7 -20 23 0 57 18 57 30 0 16 -23 11
-50 -10z"/>
<path d="M6150 4440 c0 -5 4 -10 9 -10 6 0 13 5 16 10 3 6 -1 10 -9 10 -9 0
-16 -4 -16 -10z"/>
<path d="M2610 4425 c-19 -23 -7 -39 13 -17 10 11 14 23 9 26 -5 3 -15 -1 -22
-9z"/>
<path d="M2499 4428 c-1 -2 -3 -27 -4 -56 -2 -39 -8 -59 -25 -77 -22 -24 -20
-45 5 -45 15 0 59 85 51 99 -4 5 -2 20 3 34 6 16 6 28 -2 36 -10 10 -25 15
-28 9z"/>
<path d="M4640 4419 c0 -5 5 -7 10 -4 6 3 10 8 10 11 0 2 -4 4 -10 4 -5 0 -10
-5 -10 -11z"/>
<path d="M3410 4395 c-7 -9 -10 -19 -6 -22 8 -9 38 9 44 25 5 17 -23 15 -38
-3z"/>
<path d="M6130 4400 c0 -5 7 -10 15 -10 8 0 15 5 15 10 0 6 -7 10 -15 10 -8 0
-15 -4 -15 -10z"/>
<path d="M4713 4364 c-20 -40 -10 -54 33 -46 32 6 42 22 13 22 -20 0 -21 1 -5
25 21 31 20 35 -4 35 -13 0 -26 -12 -37 -36z"/>
<path d="M2180 4348 c-26 -54 -25 -58 9 -58 25 0 29 4 35 38 9 54 8 62 -9 62
-8 0 -24 -19 -35 -42z"/>
<path d="M3450 4365 c-10 -12 -9 -16 4 -21 16 -6 46 11 46 27 0 15 -37 10 -50
-6z"/>
<path d="M3500 4324 c0 -31 23 -28 28 4 2 15 -2 22 -12 22 -11 0 -16 -9 -16
-26z"/>
<path d="M3540 4330 c0 -5 9 -10 20 -10 11 0 20 5 20 10 0 6 -9 10 -20 10 -11
0 -20 -4 -20 -10z"/>
<path d="M2850 4312 c0 -5 -11 -14 -25 -20 -14 -6 -25 -16 -25 -22 0 -15 28
-12 37 4 4 8 17 14 28 13 25 -2 27 26 3 31 -10 2 -18 -1 -18 -6z"/>
<path d="M4765 4301 c-10 -17 12 -21 25 -6 10 12 10 15 -3 15 -9 0 -18 -4 -22
-9z"/>
<path d="M5744 4265 c-10 -24 14 -47 37 -34 22 11 18 24 -12 39 -15 9 -21 7
-25 -5z"/>
<path d="M2215 4241 c-6 -11 9 -23 19 -14 9 9 7 23 -3 23 -6 0 -12 -4 -16 -9z"/>
<path d="M2935 4241 c-7 -12 12 -24 25 -16 11 7 4 25 -10 25 -5 0 -11 -4 -15
-9z"/>
<path d="M2765 4231 c-3 -5 -1 -12 5 -16 12 -7 30 2 30 16 0 12 -27 12 -35 0z"/>
<path d="M2870 4230 c0 -5 7 -10 16 -10 8 0 12 5 9 10 -3 6 -10 10 -16 10 -5
0 -9 -4 -9 -10z"/>
<path d="M4755 4230 c3 -5 13 -10 21 -10 8 0 14 5 14 10 0 6 -9 10 -21 10 -11
0 -17 -4 -14 -10z"/>
<path d="M2145 4208 c-11 -13 -27 -38 -36 -56 -14 -27 -15 -34 -4 -38 21 -8
31 1 54 49 32 67 25 90 -14 45z"/>
<path d="M3570 4205 c0 -8 7 -15 15 -15 8 0 15 7 15 15 0 8 -7 15 -15 15 -8 0
-15 -7 -15 -15z"/>
<path d="M3650 4196 c0 -8 4 -17 8 -20 13 -8 35 11 28 23 -10 16 -36 14 -36
-3z"/>
<path d="M5767 4203 c-14 -13 -6 -24 15 -21 27 4 36 28 11 28 -11 0 -23 -3
-26 -7z"/>
<path d="M2658 4193 c-26 -4 -43 -27 -32 -44 9 -15 34 -10 34 7 0 13 4 13 30
-3 21 -12 28 -23 24 -35 -3 -10 -1 -18 5 -18 6 0 11 -6 11 -14 0 -8 11 -17 25
-20 29 -7 48 0 39 15 -4 6 -11 6 -20 -2 -17 -14 -18 -5 -2 21 11 16 9 22 -7
34 -20 14 -20 15 -1 29 14 10 16 16 7 21 -6 4 -18 3 -25 -3 -10 -8 -17 -7 -26
4 -7 8 -18 14 -24 14 -6 -1 -23 -4 -38 -6z"/>
<path d="M4795 4180 c-4 -6 -15 -8 -25 -5 -19 6 -37 -10 -22 -19 13 -8 82 13
82 24 0 13 -27 13 -35 0z"/>
<path d="M4820 4145 c0 -8 7 -15 15 -15 8 0 15 7 15 15 0 8 -7 15 -15 15 -8 0
-15 -7 -15 -15z"/>
<path d="M5456 4111 c-5 -36 0 -52 41 -131 l48 -90 58 0 c51 0 64 -4 92 -29
18 -15 55 -36 84 -46 28 -11 51 -23 51 -27 0 -4 9 -8 20 -8 23 0 27 25 5 34
-8 3 -15 17 -15 31 0 20 7 29 30 36 17 6 30 17 30 25 0 19 -39 18 -46 -1 -4
-8 -14 -15 -25 -15 -26 0 -74 48 -74 74 0 19 -5 21 -57 19 -41 -2 -58 2 -62
12 -3 8 -14 15 -25 15 -11 0 -23 5 -26 10 -4 6 7 10 24 10 17 0 31 -4 31 -9 0
-6 17 -8 38 -6 20 1 43 3 50 4 13 1 17 27 4 35 -5 3 -20 -1 -35 -9 -23 -12
-27 -12 -27 0 0 8 -18 20 -40 26 -22 7 -45 18 -51 25 -6 8 -23 10 -44 7 -29
-5 -34 -3 -37 18 -1 13 -10 25 -19 27 -12 2 -18 -8 -23 -37z"/>
<path d="M3531 4126 c-10 -12 -6 -26 10 -26 11 0 19 29 10 35 -5 2 -14 -1 -20
-9z"/>
<path d="M5791 4126 c-8 -10 -9 -16 -1 -21 13 -8 30 3 30 21 0 18 -14 18 -29
0z"/>
<path d="M2824 4105 c-4 -8 -3 -23 2 -32 8 -21 11 -29 13 -43 1 -13 38 -13 46
0 3 5 -3 15 -13 21 -13 8 -17 20 -14 40 3 22 0 29 -12 29 -9 0 -19 -7 -22 -15z"/>
<path d="M5665 4111 c-6 -11 9 -23 19 -14 9 9 7 23 -3 23 -6 0 -12 -4 -16 -9z"/>
<path d="M6675 4100 c-10 -17 12 -37 25 -24 8 8 6 15 -4 23 -10 9 -16 9 -21 1z"/>
<path d="M2577 4083 c-13 -12 -7 -23 13 -23 11 0 20 7 20 15 0 15 -21 21 -33
8z"/>
<path d="M3610 4075 c0 -8 7 -15 15 -15 8 0 15 7 15 15 0 8 -7 15 -15 15 -8 0
-15 -7 -15 -15z"/>
<path d="M5760 4065 c0 -8 7 -15 15 -15 8 0 15 7 15 15 0 8 -7 15 -15 15 -8 0
-15 -7 -15 -15z"/>
<path d="M5855 4071 c6 -5 23 -13 39 -17 22 -5 28 -4 24 7 -2 8 -20 15 -39 17
-23 2 -31 0 -24 -7z"/>
<path d="M2090 4055 c-9 -11 -10 -18 -1 -29 6 -7 9 -20 5 -29 -11 -30 15 -26
30 5 26 51 -1 93 -34 53z"/>
<path d="M4855 4060 c-3 -5 1 -10 9 -10 9 0 16 5 16 10 0 6 -4 10 -9 10 -6 0
-13 -4 -16 -10z"/>
<path d="M5993 4063 c-15 -5 -17 -29 -4 -37 14 -9 41 4 41 19 0 15 -19 24 -37
18z"/>
<path d="M2380 4049 c0 -5 5 -7 10 -4 6 3 10 8 10 11 0 2 -4 4 -10 4 -5 0 -10
-5 -10 -11z"/>
<path d="M6670 4040 c0 -5 4 -10 9 -10 6 0 13 5 16 10 3 6 -1 10 -9 10 -9 0
-16 -4 -16 -10z"/>
<path d="M3544 4024 c3 -9 6 -22 6 -30 0 -8 7 -14 15 -14 10 0 15 10 15 30 0
24 -4 30 -21 30 -15 0 -19 -4 -15 -16z"/>
<path d="M3790 4025 c0 -10 7 -15 18 -13 21 4 19 22 -2 26 -10 2 -16 -3 -16
-13z"/>
<path d="M2575 4020 c4 -6 11 -8 16 -5 14 9 11 15 -7 15 -8 0 -12 -5 -9 -10z"/>
<path d="M3490 4020 c0 -5 5 -10 10 -10 6 0 10 5 10 10 0 6 -4 10 -10 10 -5 0
-10 -4 -10 -10z"/>
<path d="M5760 4011 c0 -18 17 -20 36 -6 18 14 18 14 -8 15 -16 0 -28 -4 -28
-9z"/>
<path d="M5853 4008 c2 -7 12 -13 22 -13 10 0 20 6 23 13 2 7 -6 12 -23 12
-17 0 -25 -5 -22 -12z"/>
<path d="M2450 3996 c0 -11 9 -16 26 -16 31 0 28 23 -4 28 -15 2 -22 -2 -22
-12z"/>
<path d="M4905 3991 c-7 -12 12 -24 25 -16 11 7 4 25 -10 25 -5 0 -11 -4 -15
-9z"/>
<path d="M5924 3986 c-10 -8 -16 -18 -12 -22 9 -8 68 15 68 27 0 14 -34 11
-56 -5z"/>
<path d="M2195 3980 c3 -5 8 -10 11 -10 2 0 4 5 4 10 0 6 -5 10 -11 10 -5 0
-7 -4 -4 -10z"/>
<path d="M5992 3956 c-12 -27 -7 -36 20 -36 13 0 18 8 18 30 0 37 -22 40 -38
6z"/>
<path d="M6690 3970 c0 -5 7 -10 15 -10 8 0 15 5 15 10 0 6 -7 10 -15 10 -8 0
-15 -4 -15 -10z"/>
<path d="M2547 3956 c-3 -8 -3 -17 0 -20 9 -9 44 14 38 25 -9 14 -32 11 -38
-5z"/>
<path d="M5785 3960 c3 -5 19 -10 36 -10 16 0 29 5 29 10 0 6 -16 10 -36 10
-21 0 -33 -4 -29 -10z"/>
<path d="M1850 3930 c0 -5 5 -10 10 -10 6 0 10 5 10 10 0 6 -4 10 -10 10 -5 0
-10 -4 -10 -10z"/>
<path d="M2400 3930 c0 -5 6 -10 14 -10 8 0 18 5 21 10 3 6 -3 10 -14 10 -12
0 -21 -4 -21 -10z"/>
<path d="M5914 3918 c-7 -12 21 -38 42 -38 21 0 25 17 8 34 -18 19 -40 21 -50
4z"/>
<path d="M3380 3905 c0 -9 5 -15 11 -13 6 2 11 8 11 13 0 5 -5 11 -11 13 -6 2
-11 -4 -11 -13z"/>
<path d="M4955 3910 c-8 -13 3 -30 20 -30 23 0 27 18 6 30 -13 7 -22 7 -26 0z"/>
<path d="M6658 3913 c-17 -3 -28 -11 -28 -19 0 -12 7 -14 33 -9 39 9 47 13 47
26 0 9 -3 9 -52 2z"/>
<path d="M2154 3899 c-9 -15 11 -33 30 -26 9 4 13 13 10 22 -7 17 -30 20 -40
4z"/>
<path d="M2530 3895 c0 -8 9 -19 20 -25 11 -6 20 -17 20 -25 0 -9 9 -15 21
-15 16 0 19 4 13 18 -4 9 -7 27 -7 40 1 19 -4 22 -33 22 -23 0 -34 -5 -34 -15z"/>
<path d="M2090 3879 c0 -5 5 -7 10 -4 6 3 10 8 10 11 0 2 -4 4 -10 4 -5 0 -10
-5 -10 -11z"/>
<path d="M2439 3882 c-1 -4 -1 -10 -1 -14 1 -3 -5 -12 -13 -18 -20 -17 -19
-42 2 -38 9 2 22 17 29 35 11 26 11 32 -1 37 -8 3 -16 2 -16 -2z"/>
<path d="M6027 3874 c-17 -18 -6 -35 21 -32 16 2 27 9 27 18 0 16 -36 26 -48
14z"/>
<path d="M3890 3850 c-17 -33 -1 -44 26 -19 13 12 24 26 24 31 0 17 -40 7 -50
-12z"/>
<path d="M5939 3858 c0 -2 -2 -16 -4 -32 -4 -27 -14 -40 -39 -49 -5 -2 -6 -8
-2 -15 4 -8 16 -5 40 9 50 29 60 44 46 68 -8 17 -38 30 -41 19z"/>
<path d="M2220 3841 c0 -11 26 -22 34 -14 3 3 3 10 0 14 -7 12 -34 11 -34 0z"/>
<path d="M3730 3843 c0 -2 7 -11 15 -19 15 -15 40 -10 30 5 -5 10 -45 22 -45
14z"/>
<path d="M2136 3821 c-4 -5 -2 -12 3 -15 5 -4 12 -2 15 3 4 5 2 12 -3 15 -5 4
-12 2 -15 -3z"/>
<path d="M2256 3805 c-10 -7 -15 -18 -12 -24 9 -14 56 8 56 26 0 17 -20 16
-44 -2z"/>
<path d="M3960 3805 c0 -11 11 -15 40 -15 29 0 40 4 40 15 0 11 -11 15 -40 15
-29 0 -40 -4 -40 -15z"/>
<path d="M2447 3793 c-12 -11 -8 -23 8 -23 8 0 15 7 15 15 0 16 -12 20 -23 8z"/>
<path d="M2050 3764 c0 -11 8 -14 27 -12 39 4 42 28 4 28 -21 0 -31 -5 -31
-16z"/>
<path d="M5983 3761 c-3 -12 -11 -21 -18 -21 -7 0 -18 -7 -25 -15 -10 -12 -9
-16 3 -21 19 -7 89 44 84 60 -7 21 -38 19 -44 -3z"/>
<path d="M3445 3760 c3 -5 10 -10 16 -10 5 0 9 5 9 10 0 6 -7 10 -16 10 -8 0
-12 -4 -9 -10z"/>
<path d="M2211 3751 c-10 -6 -10 -10 -1 -16 13 -8 24 -1 19 14 -3 6 -10 7 -18
2z"/>
<path d="M3647 3753 c-12 -11 -8 -23 7 -23 7 0 19 7 26 15 10 12 9 15 -7 15
-11 0 -23 -3 -26 -7z"/>
<path d="M1780 3745 c0 -16 31 -35 59 -35 29 0 41 13 23 24 -14 8 -82 18 -82
11z"/>
<path d="M2273 3723 c-25 -17 -31 -43 -10 -43 14 0 47 35 47 50 0 14 -11 12
-37 -7z"/>
<path d="M6050 3731 c0 -11 21 -19 38 -14 21 8 13 23 -13 23 -14 0 -25 -4 -25
-9z"/>
<path d="M2046 3723 c-11 -11 -6 -23 9 -23 8 0 15 4 15 9 0 13 -16 22 -24 14z"/>
<path d="M2105 3720 c4 -6 11 -8 16 -5 14 9 11 15 -7 15 -8 0 -12 -5 -9 -10z"/>
<path d="M5995 3700 c-3 -5 1 -10 9 -10 9 0 16 5 16 10 0 6 -4 10 -9 10 -6 0
-13 -4 -16 -10z"/>
<path d="M1837 3693 c-12 -11 -8 -23 8 -23 8 0 15 7 15 15 0 16 -12 20 -23 8z"/>
<path d="M5830 3690 c0 -5 7 -10 15 -10 8 0 15 5 15 10 0 6 -7 10 -15 10 -8 0
-15 -4 -15 -10z"/>
<path d="M1760 3680 c0 -5 7 -10 15 -10 8 0 15 5 15 10 0 6 -7 10 -15 10 -8 0
-15 -4 -15 -10z"/>
<path d="M3627 3670 c3 -11 12 -20 19 -20 18 0 18 8 0 26 -20 19 -25 18 -19
-6z"/>
<path d="M3670 3680 c0 -5 5 -10 10 -10 6 0 10 5 10 10 0 6 -4 10 -10 10 -5 0
-10 -4 -10 -10z"/>
<path d="M1890 3654 c0 -9 7 -14 17 -12 25 5 28 28 4 28 -12 0 -21 -6 -21 -16z"/>
<path d="M2235 3656 c-3 -9 -7 -23 -10 -31 -7 -23 22 -30 42 -10 12 13 14 21
7 33 -15 23 -33 26 -39 8z"/>
<path d="M3757 3663 c-13 -13 -7 -23 14 -23 12 0 27 -7 34 -17 13 -18 35 -10
35 13 0 8 -10 14 -24 14 -14 0 -28 5 -31 10 -7 12 -19 13 -28 3z"/>
<path d="M2120 3650 c0 -5 7 -10 15 -10 8 0 15 5 15 10 0 6 -7 10 -15 10 -8 0
-15 -4 -15 -10z"/>
<path d="M2303 3644 c-9 -24 18 -36 39 -17 10 9 15 20 12 24 -9 15 -44 10 -51
-7z"/>
<path d="M3480 3647 c0 -18 47 -40 56 -26 8 13 -4 25 -33 34 -16 4 -23 2 -23
-8z"/>
<path d="M1725 3641 c-7 -12 12 -24 25 -16 11 7 4 25 -10 25 -5 0 -11 -4 -15
-9z"/>
<path d="M2160 3634 c0 -9 5 -14 12 -12 18 6 21 28 4 28 -9 0 -16 -7 -16 -16z"/>
<path d="M5945 3641 c-7 -12 12 -24 25 -16 11 7 4 25 -10 25 -5 0 -11 -4 -15
-9z"/>
<path d="M1862 3631 c4 -13 18 -16 19 -4 0 4 -5 9 -11 12 -7 2 -11 -2 -8 -8z"/>
<path d="M1960 3630 c0 -5 7 -10 15 -10 8 0 15 5 15 10 0 6 -7 10 -15 10 -8 0
-15 -4 -15 -10z"/>
<path d="M4734 3629 c-3 -6 -2 -15 4 -21 13 -13 32 -2 32 18 0 16 -26 19 -36
3z"/>
<path d="M3575 3620 c-3 -6 1 -13 10 -16 19 -8 30 0 20 15 -8 14 -22 14 -30 1z"/>
<path d="M3710 3610 c0 -23 10 -26 28 -8 18 18 15 28 -8 28 -13 0 -20 -7 -20
-20z"/>
<path d="M2087 3590 c-10 -19 -12 -32 -6 -36 6 -3 13 3 16 14 3 11 12 23 20
26 8 3 11 10 8 16 -11 17 -23 11 -38 -20z"/>
<path d="M1663 3600 c-38 -16 -27 -31 18 -26 47 6 54 10 44 25 -7 13 -31 13
-62 1z"/>
<path d="M1765 3600 c-9 -15 4 -30 20 -23 8 3 15 9 15 13 0 12 -29 20 -35 10z"/>
<path d="M1980 3600 c0 -5 7 -10 15 -10 8 0 15 5 15 10 0 6 -7 10 -15 10 -8 0
-15 -4 -15 -10z"/>
<path d="M2186 3591 c-4 -5 -2 -12 3 -15 5 -4 12 -2 15 3 4 5 2 12 -3 15 -5 4
-12 2 -15 -3z"/>
<path d="M1268 3567 c-30 -25 -35 -35 -15 -34 6 0 21 -1 32 -2 17 -2 16 -4 -7
-17 -30 -16 -36 -30 -15 -37 9 -3 9 -7 0 -19 -15 -17 -8 -28 17 -28 25 0 44
26 35 47 -11 25 -6 45 13 59 16 12 15 14 -5 33 -27 25 -22 25 -55 -2z"/>
<path d="M1925 3569 c-4 -6 -5 -13 -2 -16 7 -7 27 6 27 18 0 12 -17 12 -25 -2z"/>
<path d="M1862 3558 c5 -15 37 -18 41 -3 1 6 -9 12 -22 13 -16 3 -22 -1 -19
-10z"/>
<path d="M3406 3562 c-2 -4 -1 -14 4 -22 7 -11 12 -12 21 -3 6 6 8 16 5 22 -8
13 -23 14 -30 3z"/>
<path d="M3700 3554 c0 -9 7 -14 17 -12 25 5 28 28 4 28 -12 0 -21 -6 -21 -16z"/>
<path d="M5915 3561 c-3 -5 -1 -12 4 -15 12 -8 41 3 41 15 0 12 -37 12 -45 0z"/>
<path d="M5974 3559 c-9 -16 12 -33 31 -25 14 5 15 9 5 21 -15 18 -26 19 -36
4z"/>
<path d="M1686 3534 c-9 -35 -4 -38 24 -16 13 11 20 24 16 30 -12 21 -34 13
-40 -14z"/>
<path d="M1825 3550 c-3 -5 -1 -10 4 -10 6 0 11 5 11 10 0 6 -2 10 -4 10 -3 0
-8 -4 -11 -10z"/>
<path d="M3480 3550 c0 -5 6 -10 14 -10 8 0 18 5 21 10 3 6 -3 10 -14 10 -12
0 -21 -4 -21 -10z"/>
<path d="M1960 3521 c-13 -26 -13 -31 5 -31 16 0 38 34 28 44 -11 11 -22 6
-33 -13z"/>
<path d="M2070 3530 c0 -12 33 -30 54 -30 21 0 21 26 0 34 -24 9 -54 7 -54 -4z"/>
<path d="M2160 3527 c0 -7 16 -19 35 -27 19 -8 35 -20 35 -27 0 -7 7 -13 15
-13 13 0 17 6 14 26 0 4 5 10 13 15 10 6 10 11 1 20 -10 10 -14 9 -19 -5 -6
-16 -8 -15 -26 3 -21 23 -68 28 -68 8z"/>
<path d="M1763 3503 c-7 -15 -11 -28 -9 -30 7 -7 36 28 36 43 0 23 -14 16 -27
-13z"/>
<path d="M3630 3520 c0 -5 7 -10 15 -10 8 0 15 5 15 10 0 6 -7 10 -15 10 -8 0
-15 -4 -15 -10z"/>
<path d="M4704 3516 c-17 -12 -19 -22 -15 -53 8 -51 25 -78 44 -70 10 4 14 13
10 28 -4 15 0 26 13 36 17 13 17 15 2 40 -20 34 -28 37 -54 19z"/>
<path d="M1595 3511 c-10 -18 17 -23 33 -7 15 15 15 16 -5 16 -12 0 -24 -4
-28 -9z"/>
<path d="M1830 3510 c0 -5 7 -10 16 -10 8 0 12 5 9 10 -3 6 -10 10 -16 10 -5
0 -9 -4 -9 -10z"/>
<path d="M3565 3510 c-7 -12 32 -56 42 -47 7 8 -16 57 -28 57 -4 0 -11 -4 -14
-10z"/>
<path d="M3686 3488 c-11 -54 16 -50 29 5 5 20 3 27 -8 27 -8 0 -17 -13 -21
-32z"/>
<path d="M1706 3493 c-11 -11 -6 -23 9 -23 8 0 15 4 15 9 0 13 -16 22 -24 14z"/>
<path d="M2060 3470 c0 -5 5 -10 10 -10 6 0 10 5 10 10 0 6 -4 10 -10 10 -5 0
-10 -4 -10 -10z"/>
<path d="M1530 3456 c0 -8 -3 -22 -6 -31 -5 -13 -2 -15 22 -9 39 9 40 11 19
34 -21 23 -35 26 -35 6z"/>
<path d="M1864 3446 c-10 -8 -16 -18 -12 -22 10 -9 58 12 58 26 0 14 -23 12
-46 -4z"/>
<path d="M2200 3449 c0 -5 5 -7 10 -4 6 3 10 8 10 11 0 2 -4 4 -10 4 -5 0 -10
-5 -10 -11z"/>
<path d="M3293 3447 c-23 -10 -30 -31 -14 -41 4 -3 16 3 26 14 10 11 24 16 33
13 18 -6 17 -4 -8 14 -10 7 -22 7 -37 0z"/>
<path d="M3630 3451 c0 -13 26 -32 33 -24 14 13 6 33 -13 33 -11 0 -20 -4 -20
-9z"/>
<path d="M1082 3433 c4 -21 33 -25 33 -3 0 8 -8 16 -18 18 -14 3 -18 -1 -15
-15z"/>
<path d="M1602 3441 c2 -7 7 -12 11 -12 12 1 9 15 -3 20 -7 2 -11 -2 -8 -8z"/>
<path d="M1735 3441 c-7 -12 12 -24 25 -16 11 7 4 25 -10 25 -5 0 -11 -4 -15
-9z"/>
<path d="M1965 3441 c-10 -18 17 -23 33 -7 15 15 15 16 -5 16 -12 0 -24 -4
-28 -9z"/>
<path d="M3470 3440 c0 -5 7 -10 15 -10 8 0 15 5 15 10 0 6 -7 10 -15 10 -8 0
-15 -4 -15 -10z"/>
<path d="M6017 3434 c-14 -14 -7 -35 11 -32 9 2 17 10 17 17 0 16 -18 25 -28
15z"/>
<path d="M1345 3407 c-17 -13 -14 -37 5 -37 14 0 41 31 35 41 -8 12 -18 11
-40 -4z"/>
<path d="M1462 3408 c6 -18 28 -21 28 -4 0 9 -7 16 -16 16 -9 0 -14 -5 -12
-12z"/>
<path d="M2175 3409 c-10 -15 3 -25 16 -12 7 7 7 13 1 17 -6 3 -14 1 -17 -5z"/>
<path d="M1410 3395 c0 -10 7 -15 18 -13 21 4 19 22 -2 26 -10 2 -16 -3 -16
-13z"/>
<path d="M1720 3399 c0 -5 5 -7 10 -4 6 3 10 8 10 11 0 2 -4 4 -10 4 -5 0 -10
-5 -10 -11z"/>
<path d="M3596 3401 c-3 -5 6 -12 20 -15 29 -8 39 -3 29 13 -8 13 -42 14 -49
2z"/>
<path d="M1224 3374 c-22 -32 -7 -50 24 -28 25 17 30 54 7 54 -8 0 -22 -11
-31 -26z"/>
<path d="M2093 3388 c2 -7 10 -13 17 -13 7 0 15 6 18 13 2 7 -5 12 -18 12 -13
0 -20 -5 -17 -12z"/>
<path d="M2230 3390 c0 -5 7 -10 15 -10 8 0 15 5 15 10 0 6 -7 10 -15 10 -8 0
-15 -4 -15 -10z"/>
<path d="M1930 3380 c0 -5 5 -10 10 -10 6 0 10 5 10 10 0 6 -4 10 -10 10 -5 0
-10 -4 -10 -10z"/>
<path d="M1440 3371 c0 -5 10 -11 23 -15 36 -9 43 -6 23 9 -22 17 -46 20 -46
6z"/>
<path d="M1750 3370 c0 -5 7 -10 15 -10 8 0 15 5 15 10 0 6 -7 10 -15 10 -8 0
-15 -4 -15 -10z"/>
<path d="M3386 3373 c-9 -10 -7 -43 3 -43 11 0 21 39 11 45 -4 2 -10 2 -14 -2z"/>
<path d="M1366 3361 c-3 -5 -26 -12 -52 -16 -36 -5 -44 -10 -40 -22 8 -20 -21
-42 -56 -43 -19 0 -28 -5 -28 -16 0 -10 6 -14 14 -11 8 3 16 -2 19 -14 4 -16
13 -19 53 -17 37 2 51 8 66 29 10 14 20 35 21 48 1 12 9 27 19 32 22 12 24 39
4 39 -8 0 -17 -4 -20 -9z"/>
<path d="M1520 3355 c-7 -8 -11 -17 -8 -20 8 -8 49 8 45 18 -6 18 -23 19 -37
2z"/>
<path d="M1616 3361 c-4 -7 -5 -15 -2 -18 9 -9 19 4 14 18 -4 11 -6 11 -12 0z"/>
<path d="M3145 3360 c-3 -5 -1 -10 4 -10 6 0 11 5 11 10 0 6 -2 10 -4 10 -3 0
-8 -4 -11 -10z"/>
<path d="M3219 3365 c-1 -3 -2 -8 -3 -12 -1 -5 -5 -14 -10 -21 -4 -7 -5 -16
-2 -19 9 -9 38 6 31 16 -3 5 -1 12 5 16 15 9 12 25 -5 25 -8 0 -16 -2 -16 -5z"/>
<path d="M1995 3350 c3 -5 8 -10 11 -10 2 0 4 5 4 10 0 6 -5 10 -11 10 -5 0
-7 -4 -4 -10z"/>
<path d="M2094 3345 c-4 -9 -3 -19 0 -23 9 -8 42 12 39 24 -4 16 -33 16 -39
-1z"/>
<path d="M3315 3349 c-4 -6 -5 -13 -2 -16 7 -7 27 6 27 18 0 12 -17 12 -25 -2z"/>
<path d="M1405 3309 c-6 -25 -3 -35 11 -46 25 -18 34 -5 26 36 -10 45 -28 50
-37 10z"/>
<path d="M1776 3333 c-12 -12 -5 -23 14 -23 11 0 20 4 20 9 0 11 -26 22 -34
14z"/>
<path d="M2181 3290 c-42 -44 -55 -51 -115 -64 -37 -7 -69 -15 -70 -17 -15
-17 -96 -151 -96 -159 0 -13 66 -13 92 1 11 6 26 26 34 45 18 42 46 61 110 73
40 8 56 18 92 58 59 66 65 78 46 97 -25 25 -42 19 -93 -34z"/>
<path d="M3425 3330 c-8 -14 3 -30 21 -30 8 0 14 9 14 20 0 21 -24 28 -35 10z"/>
<path d="M3270 3315 c0 -8 7 -15 15 -15 8 0 15 7 15 15 0 8 -7 15 -15 15 -8 0
-15 -7 -15 -15z"/>
<path d="M1660 3305 c-10 -13 -9 -15 9 -15 11 0 21 4 21 9 0 18 -18 21 -30 6z"/>
<path d="M4738 3306 c-23 -17 -23 -26 1 -26 21 0 45 23 34 33 -9 10 -15 8 -35
-7z"/>
<path d="M1570 3290 c0 -5 5 -10 10 -10 6 0 10 5 10 10 0 6 -4 10 -10 10 -5 0
-10 -4 -10 -10z"/>
<path d="M3330 3285 c0 -9 5 -15 11 -13 6 2 11 8 11 13 0 5 -5 11 -11 13 -6 2
-11 -4 -11 -13z"/>
<path d="M1842 3264 c2 -11 11 -20 22 -22 13 -3 17 1 14 14 -2 11 -11 20 -22
22 -13 3 -17 -1 -14 -14z"/>
<path d="M3107 3264 c-16 -16 -6 -35 16 -32 12 2 22 10 22 18 0 16 -26 25 -38
14z"/>
<path d="M1977 3254 c-8 -8 1 -24 14 -24 5 0 9 7 9 15 0 15 -12 20 -23 9z"/>
<path d="M2982 3239 c2 -6 8 -10 13 -10 5 0 11 4 13 10 2 6 -4 11 -13 11 -9 0
-15 -5 -13 -11z"/>
<path d="M3217 3243 c-14 -13 -6 -24 15 -21 27 4 36 28 11 28 -11 0 -23 -3
-26 -7z"/>
<path d="M3300 3234 c0 -9 5 -14 12 -12 18 6 21 28 4 28 -9 0 -16 -7 -16 -16z"/>
<path d="M1492 3223 c5 -26 38 -29 38 -4 0 15 -6 21 -21 21 -14 0 -19 -5 -17
-17z"/>
<path d="M1601 3230 c-16 -9 -6 -30 15 -30 15 0 20 25 6 34 -4 2 -14 1 -21 -4z"/>
<path d="M1170 3205 c0 -8 7 -15 15 -15 8 0 15 7 15 15 0 8 -7 15 -15 15 -8 0
-15 -7 -15 -15z"/>
<path d="M954 3199 c-9 -15 5 -27 26 -22 11 3 20 0 20 -6 0 -6 9 -11 20 -11
22 0 27 24 8 36 -17 11 -68 13 -74 3z"/>
<path d="M1862 3198 c5 -15 37 -18 41 -3 1 6 -9 12 -22 13 -16 3 -22 -1 -19
-10z"/>
<path d="M4700 3200 c0 -5 5 -10 10 -10 6 0 10 5 10 10 0 6 -4 10 -10 10 -5 0
-10 -4 -10 -10z"/>
<path d="M1077 3175 c-7 -16 8 -29 23 -20 15 9 12 35 -4 35 -8 0 -16 -7 -19
-15z"/>
<path d="M3360 3182 c0 -4 5 -13 12 -20 18 -18 28 -15 28 8 0 13 -7 20 -20 20
-11 0 -20 -4 -20 -8z"/>
<path d="M1405 3171 c-3 -5 -1 -12 5 -16 12 -7 30 2 30 16 0 12 -27 12 -35 0z"/>
<path d="M3260 3170 c0 -5 5 -10 10 -10 6 0 10 5 10 10 0 6 -4 10 -10 10 -5 0
-10 -4 -10 -10z"/>
<path d="M1210 3161 c0 -12 29 -23 41 -15 18 10 9 24 -16 24 -14 0 -25 -4 -25
-9z"/>
<path d="M2970 3155 c0 -8 7 -15 15 -15 8 0 15 7 15 15 0 8 -7 15 -15 15 -8 0
-15 -7 -15 -15z"/>
<path d="M1120 3145 c0 -9 5 -15 11 -13 6 2 11 8 11 13 0 5 -5 11 -11 13 -6 2
-11 -4 -11 -13z"/>
<path d="M3152 3143 c5 -25 28 -28 28 -4 0 12 -6 21 -16 21 -9 0 -14 -7 -12
-17z"/>
<path d="M2885 3130 c4 -6 11 -8 16 -5 14 9 11 15 -7 15 -8 0 -12 -5 -9 -10z"/>
<path d="M1080 3111 c0 -12 5 -21 10 -21 6 0 10 6 10 14 0 8 -4 18 -10 21 -5
3 -10 -3 -10 -14z"/>
<path d="M1293 3118 c2 -7 10 -13 17 -13 7 0 15 6 18 13 2 7 -5 12 -18 12 -13
0 -20 -5 -17 -12z"/>
<path d="M3056 3113 c-8 -19 7 -38 22 -29 11 7 4 46 -8 46 -4 0 -11 -8 -14
-17z"/>
<path d="M4700 3120 c0 -5 7 -10 15 -10 8 0 15 5 15 10 0 6 -7 10 -15 10 -8 0
-15 -4 -15 -10z"/>
<path d="M1672 3108 c6 -18 28 -21 28 -4 0 9 -7 16 -16 16 -9 0 -14 -5 -12
-12z"/>
<path d="M1350 3099 c0 -5 5 -7 10 -4 6 3 10 8 10 11 0 2 -4 4 -10 4 -5 0 -10
-5 -10 -11z"/>
<path d="M1576 3093 c-11 -11 -6 -23 9 -23 8 0 15 4 15 9 0 13 -16 22 -24 14z"/>
<path d="M2707 3075 c-8 -18 11 -31 25 -17 11 11 3 32 -12 32 -4 0 -10 -7 -13
-15z"/>
<path d="M3155 3081 c-7 -12 12 -24 25 -16 11 7 4 25 -10 25 -5 0 -11 -4 -15
-9z"/>
<path d="M2977 3074 c-13 -13 -7 -24 14 -24 11 0 19 5 17 12 -5 14 -22 21 -31
12z"/>
<path d="M3250 3070 c0 -5 5 -10 10 -10 6 0 10 5 10 10 0 6 -4 10 -10 10 -5 0
-10 -4 -10 -10z"/>
<path d="M872 3058 c6 -18 28 -21 28 -4 0 9 -7 16 -16 16 -9 0 -14 -5 -12 -12z"/>
<path d="M2880 3060 c0 -5 5 -10 11 -10 5 0 7 5 4 10 -3 6 -8 10 -11 10 -2 0
-4 -4 -4 -10z"/>
<path d="M2602 3013 c2 -10 10 -18 18 -18 8 0 16 8 18 18 2 12 -3 17 -18 17
-15 0 -20 -5 -18 -17z"/>
<path d="M2760 2985 c0 -9 5 -15 11 -13 6 2 11 8 11 13 0 5 -5 11 -11 13 -6 2
-11 -4 -11 -13z"/>
<path d="M2475 2961 c-3 -5 -1 -12 5 -16 12 -7 30 2 30 16 0 12 -27 12 -35 0z"/>
<path d="M2682 2953 c4 -21 33 -25 33 -3 0 8 -8 16 -18 18 -14 3 -18 -1 -15
-15z"/>
</g>
</svg>
